<mxfile host="65bd71144e">
    <diagram id="GSUCTNZ9FpM99b6hBzyc" name="ページ1">
        <mxGraphModel dx="-336" dy="570" grid="1" gridSize="10" guides="1" tooltips="1" connect="1" arrows="1" fold="1" page="1" pageScale="1" pageWidth="827" pageHeight="1169" math="0" shadow="0">
            <root>
                <mxCell id="0"/>
                <mxCell id="1" parent="0"/>
                <mxCell id="3" value="リバーシ&lt;br&gt;アプリケーション" style="rounded=0;whiteSpace=wrap;html=1;verticalAlign=top;fillColor=none;" parent="1" vertex="1">
                    <mxGeometry x="1070" y="200" width="460" height="560" as="geometry"/>
                </mxCell>
                <mxCell id="5" value="Actor" style="shape=umlActor;verticalLabelPosition=bottom;verticalAlign=top;html=1;" parent="1" vertex="1">
                    <mxGeometry x="980" y="360" width="30" height="60" as="geometry"/>
                </mxCell>
                <mxCell id="11" style="edgeStyle=none;html=1;exitX=1;exitY=0.5;exitDx=0;exitDy=0;entryX=0.013;entryY=0.265;entryDx=0;entryDy=0;entryPerimeter=0;dashed=1;" parent="1" source="6" target="10" edge="1">
                    <mxGeometry relative="1" as="geometry"/>
                </mxCell>
                <mxCell id="6" value="対戦する" style="ellipse;whiteSpace=wrap;html=1;" parent="1" vertex="1">
                    <mxGeometry x="1080" y="330" width="140" height="70" as="geometry"/>
                </mxCell>
                <mxCell id="7" value="" style="endArrow=none;html=1;entryX=0;entryY=0.5;entryDx=0;entryDy=0;" parent="1" target="6" edge="1">
                    <mxGeometry relative="1" as="geometry">
                        <mxPoint x="1010" y="390" as="sourcePoint"/>
                        <mxPoint x="1270" y="480" as="targetPoint"/>
                    </mxGeometry>
                </mxCell>
                <mxCell id="10" value="・対戦開始&lt;br&gt;・盤面を見る&lt;br&gt;・石を打つ&lt;br&gt;・勝敗を確認する" style="shape=note;whiteSpace=wrap;html=1;backgroundOutline=1;darkOpacity=0.05;fillColor=#ffe6cc;strokeColor=#d79b00;" parent="1" vertex="1">
                    <mxGeometry x="1370" y="210" width="120" height="100" as="geometry"/>
                </mxCell>
                <mxCell id="23" style="html=1;exitX=0;exitY=0.5;exitDx=0;exitDy=0;endArrow=none;endFill=0;" parent="1" source="12" target="5" edge="1">
                    <mxGeometry relative="1" as="geometry"/>
                </mxCell>
                <mxCell id="12" value="対戦履歴確認" style="ellipse;whiteSpace=wrap;html=1;" parent="1" vertex="1">
                    <mxGeometry x="1080" y="410" width="140" height="70" as="geometry"/>
                </mxCell>
                <mxCell id="13" value="会員登録・&lt;br&gt;ログイン" style="ellipse;whiteSpace=wrap;html=1;" parent="1" vertex="1">
                    <mxGeometry x="1080" y="250" width="140" height="70" as="geometry"/>
                </mxCell>
                <mxCell id="14" value="一人で交互に" style="ellipse;whiteSpace=wrap;html=1;" parent="1" vertex="1">
                    <mxGeometry x="1350" y="385" width="140" height="70" as="geometry"/>
                </mxCell>
                <mxCell id="15" value="CPUと対戦" style="ellipse;whiteSpace=wrap;html=1;" parent="1" vertex="1">
                    <mxGeometry x="1350" y="540" width="140" height="70" as="geometry"/>
                </mxCell>
                <mxCell id="16" value="他プレイヤーと対戦" style="ellipse;whiteSpace=wrap;html=1;" parent="1" vertex="1">
                    <mxGeometry x="1370" y="630" width="140" height="70" as="geometry"/>
                </mxCell>
                <mxCell id="18" value="Extends" style="endArrow=block;endSize=16;endFill=0;html=1;dashed=1;exitX=0;exitY=0.5;exitDx=0;exitDy=0;entryX=1;entryY=0.5;entryDx=0;entryDy=0;" parent="1" source="14" target="6" edge="1">
                    <mxGeometry width="160" relative="1" as="geometry">
                        <mxPoint x="1230" y="450" as="sourcePoint"/>
                        <mxPoint x="1390" y="450" as="targetPoint"/>
                    </mxGeometry>
                </mxCell>
                <mxCell id="19" value="Extends" style="endArrow=block;endSize=16;endFill=0;html=1;dashed=1;exitX=0;exitY=0.5;exitDx=0;exitDy=0;" parent="1" source="15" edge="1">
                    <mxGeometry width="160" relative="1" as="geometry">
                        <mxPoint x="1290" y="500" as="sourcePoint"/>
                        <mxPoint x="1220" y="380" as="targetPoint"/>
                    </mxGeometry>
                </mxCell>
                <mxCell id="20" value="Extends" style="endArrow=block;endSize=16;endFill=0;html=1;dashed=1;exitX=0;exitY=0.5;exitDx=0;exitDy=0;" parent="1" source="16" edge="1">
                    <mxGeometry width="160" relative="1" as="geometry">
                        <mxPoint x="1276" y="590" as="sourcePoint"/>
                        <mxPoint x="1220" y="370" as="targetPoint"/>
                    </mxGeometry>
                </mxCell>
                <mxCell id="22" value="ランキング確認" style="ellipse;whiteSpace=wrap;html=1;" parent="1" vertex="1">
                    <mxGeometry x="1080" y="610" width="140" height="70" as="geometry"/>
                </mxCell>
                <mxCell id="24" style="html=1;exitX=0;exitY=0.5;exitDx=0;exitDy=0;endArrow=none;endFill=0;" parent="1" source="22" edge="1">
                    <mxGeometry relative="1" as="geometry">
                        <mxPoint x="1090" y="481" as="sourcePoint"/>
                        <mxPoint x="1010" y="410" as="targetPoint"/>
                    </mxGeometry>
                </mxCell>
                <mxCell id="25" value="" style="rounded=0;whiteSpace=wrap;html=1;fillColor=none;strokeColor=#FF3B14;strokeWidth=4;" parent="1" vertex="1">
                    <mxGeometry x="1080" y="325" width="420" height="165" as="geometry"/>
                </mxCell>
            </root>
        </mxGraphModel>
    </diagram>
</mxfile>